<svg width="32" height="30" fill="#fff" xmlns="http://www.w3.org/2000/svg"><path d="M15.195 29.648A1.11 1.11 0 0 0 16 30c.303-.004.592-.13.804-.352L29.129 17.5a10.384 10.384 0 0 0 2.87-7.227c.002-2.71-1.028-5.314-2.87-7.265a8.868 8.868 0 0 0-6.24-2.656h-.038a10.67 10.67 0 0 0-6.852 2.617C13.817 1.016 11.749 0 9.836 0a9.63 9.63 0 0 0-3.78.79A9.794 9.794 0 0 0 2.87 3.008 10.544 10.544 0 0 0 0 10.28a10.541 10.541 0 0 0 2.907 7.258l12.288 12.11Zm-10.68-25a7.423 7.423 0 0 1 2.432-1.702 7.298 7.298 0 0 1 2.889-.602c1.531 0 3.368 1.054 5.36 3.047a1.11 1.11 0 0 0 .803.351 1.09 1.09 0 0 0 .804-.351 8.723 8.723 0 0 1 6.048-2.696h.038a6.443 6.443 0 0 1 4.594 1.953 8.174 8.174 0 0 1 2.213 5.606c0 2.09-.793 4.099-2.213 5.605L15.999 27.188 4.629 15.976H8c.192 0 .381-.049.549-.145.168-.096.308-.234.407-.402l1.57-2.422 3.292 6.445c.104.178.25.328.422.437.174.109.37.173.573.188h.039c.196-.003.387-.058.555-.161.168-.103.307-.25.401-.425l3.829-6.367 2.143 2.11a1.137 1.137 0 0 0 1.608 0 1.174 1.174 0 0 0 .347-.84 1.193 1.193 0 0 0-.347-.84L20.21 10.43a1.256 1.256 0 0 0-.957-.313c-.172.02-.337.08-.483.175a1.16 1.16 0 0 0-.36.372l-3.483 5.86-3.254-6.368a1.087 1.087 0 0 0-.39-.452c-.17-.11-.366-.17-.567-.173a1.09 1.09 0 0 0-.586.107c-.182.09-.337.228-.447.401l-2.297 3.594H3.022a8.316 8.316 0 0 1-.596-4.725 8.227 8.227 0 0 1 2.089-4.26Z" fill="#fff" fill-opacity="1"/></svg>