<svg width="20" height="9" viewBox="0 0 20 9" fill="none" xmlns="http://www.w3.org/2000/svg">
<path d="M2.04232 8V3.38574H2.08626L5.38216 8H6.60286V0.954102H5.19173V5.54395H5.15267L1.86165 0.954102H0.631185V8H2.04232ZM9.67285 3.70801C10.3076 3.70801 10.7422 4.16699 10.7715 4.83594H8.5498C8.59863 4.18164 9.04785 3.70801 9.67285 3.70801ZM10.791 6.39844C10.6592 6.79883 10.2588 7.05762 9.73633 7.05762C9.00879 7.05762 8.53516 6.54492 8.53516 5.79785V5.70996H12.1436V5.27539C12.1436 3.68359 11.1816 2.65332 9.6582 2.65332C8.11035 2.65332 7.13379 3.7373 7.13379 5.40723C7.13379 7.08203 8.10059 8.1123 9.71191 8.1123C11.0059 8.1123 11.9434 7.42383 12.0996 6.39844H10.791ZM19.862 2.76562H18.4557L17.6598 6.64746H17.6305L16.6979 2.76562H15.3307L14.403 6.64746H14.3737L13.5827 2.76562H12.1471L13.5387 8H15.0378L15.9801 4.29883H16.0094L16.9567 8H18.4753L19.862 2.76562Z" fill="white"/>
</svg>
